<?xml version="1.0" encoding="utf-8"?>
<!-- Generator: Adobe Illustrator 17.0.0, SVG Export Plug-In . SVG Version: 6.00 Build 0)  -->
<!DOCTYPE svg PUBLIC "-//W3C//DTD SVG 1.1//EN" "http://www.w3.org/Graphics/SVG/1.1/DTD/svg11.dtd">
<svg version="1.1" id="Layer_1" xmlns="http://www.w3.org/2000/svg" xmlns:xlink="http://www.w3.org/1999/xlink" x="0px" y="0px"
	 width="200px" height="200px" viewBox="0 0 200 200" enable-background="new 0 0 200 200" xml:space="preserve">
<g>
	<path fill="#EE3438" d="M8.871,171.369c1.574-2.843,4.248-1.362,6.333-1.365c56.15-0.095,112.3-0.007,168.449-0.192
		c5.151-0.017,7.03,0.971,6.811,6.553c-0.421,10.709-0.057,10.722-11.069,10.722c-54.485,0-108.97,0.025-163.455-0.087
		c-2.318-0.005-5.216,1.581-7.076-1.352C10.062,180.889,10.048,176.13,8.871,171.369z"/>
	<path fill="#EE3438" d="M148.82,30.554c0.073,41.486,0.078,82.971,0.005,124.457c-0.003,1.635,1.171,3.88-1.386,4.9
		c-5.13-1.498-10.387-0.687-15.561-0.61c-4.389,0.065-5.989-1.612-5.878-5.828c0.133-4.994,0.021-9.997,0.021-14.996
		c0-34.756-0.025-69.512,0.017-104.267"/>
	<path fill="#EE3438" d="M111.168,13.342c0.073,47.006,0.078,94.012,0.005,141.017c-0.003,1.853,1.171,4.396-1.386,5.552
		c-5.13-1.697-10.387-0.779-15.561-0.691c-4.389,0.074-5.989-1.827-5.878-6.604c0.133-5.659,0.021-11.327,0.021-16.992
		c0-39.38-0.025-78.761,0.017-118.141"/>
	<path fill="#EE3438" d="M73.106,62.707c0.052,31.012,0.054,62.024-0.011,93.036c-0.003,1.421,0.996,3.43-1.384,4.164
		c-5.35-1.504-10.814-0.566-16.217-0.631c-3.359-0.041-4.531-1.145-4.521-4.535c0.088-30.355,0.089-60.711,0-91.067"/>
	<path fill="#EE3438" d="M35.666,109.255c0,5.703,0,11.407-0.003,17.11c-0.003,9.506-0.238,19.02,0.099,28.513
		c0.16,4.504-1.383,5.502-5.664,5.551c-18.052,0.205-18.051,0.352-18.05-17.345c0.001-15.209,0.114-30.419-0.068-45.626"/>
	<path fill="#EE3438" d="M186.347,74.974c0,11.658,0,23.316,0,34.974c0,14.751-0.238,29.508,0.129,44.25
		c0.128,5.158-1.525,6.219-6.382,6.18c-17.253-0.138-17.253,0.053-17.254-17.321c-0.002-25.933,0.109-51.868-0.107-77.799"/>
	<path fill="#FFFFFF" d="M61.505,89.785c3.4-3.662,6.165-3.427,9.839,0.296c11.035,11.182,22.682,21.763,33.694,32.968
		c4.021,4.091,6.496,4.305,10.627,0.143c10.344-10.422,20.937-20.629,31.903-30.392c6.62-5.894,12.787-10.979,1.048-18.841
		c14.507-4.726,27.775-9.048,43.249-14.089c-4.753,14.867-9.02,28.214-13.765,43.059c-8.231-11.299-13.612-4.701-19.749,1.338
		c-13.877,13.655-28.405,26.656-42.117,40.469c-4.948,4.985-7.666,4.227-12.1-0.313c-10.499-10.749-21.709-20.805-32.225-31.537
		c-3.998-4.08-5.988-3.964-10.208,0.095c-17.205,16.547-34.962,32.522-51.383,47.663c-0.654-7.853-2.212-18.484,8.805-27.223
		c8.19-6.496,14.697-15.107,21.954-22.776C45.82,101.675,52.805,94.892,61.505,89.785z"/>
</g>
</svg>
