<?xml version="1.0" encoding="utf-8"?>
<!-- Generator: Adobe Illustrator 17.0.0, SVG Export Plug-In . SVG Version: 6.00 Build 0)  -->
<!DOCTYPE svg PUBLIC "-//W3C//DTD SVG 1.1//EN" "http://www.w3.org/Graphics/SVG/1.1/DTD/svg11.dtd">
<svg version="1.1" id="Layer_1" xmlns="http://www.w3.org/2000/svg" xmlns:xlink="http://www.w3.org/1999/xlink" x="0px" y="0px"
	 width="53.75px" height="41px" viewBox="0 0 53.75 41" enable-background="new 0 0 53.75 41" xml:space="preserve">
<path fill="#E62A2B" d="M18.489,12.438H11.61c-1.326,0-2.401,1.073-2.401,2.399c0,1.22,0.914,2.228,2.095,2.376
	c0.101,0.013,0.202,0.021,0.306,0.021s0.208-0.008,0.309-0.021h6.267c0.099,0.013,0.2,0.021,0.304,0.021s0.205-0.008,0.306-0.021
	c1.181-0.15,2.095-1.158,2.095-2.376C20.89,13.513,19.815,12.438,18.489,12.438z"/>
<path fill="#E62A2B" d="M13.605,22.339H5.618c-1.54,0-2.788,1.245-2.788,2.786c0,1.417,1.061,2.587,2.432,2.759
	c0.118,0.015,0.235,0.024,0.356,0.024s0.241-0.009,0.359-0.024h7.275c0.115,0.015,0.232,0.024,0.353,0.024s0.238-0.009,0.356-0.024
	c1.371-0.174,2.432-1.345,2.432-2.759C16.393,23.588,15.145,22.339,13.605,22.339z"/>
<path fill="#FFFFFF" d="M44.67,8.034c-3.028-3.441-7.939-5.632-15.096-6.447c-3.544-0.402-7.273-0.483-10.228-0.424
	C19.343,1.16,19.341,1.16,19.338,1.16c-0.132-0.011-0.266-0.013-0.4-0.005c-0.064,0.003-0.126,0.011-0.188,0.016
	c-0.016,0-0.035,0.005-0.051,0.008c-0.116,0-0.231,0.005-0.344,0.008L18.35,1.244c-0.296,0.078-0.572,0.196-0.827,0.351
	c-0.218,0.134-0.416,0.292-0.599,0.477c-0.059,0.062-0.116,0.123-0.169,0.19c-0.379,0.459-0.629,1.032-0.696,1.655
	c-0.003,0.019-0.003,0.035-0.003,0.051c0,0.029-0.005,0.054-0.005,0.083c-0.005,0.067-0.005,0.134-0.008,0.201
	c0,0.059,0,0.118,0.005,0.182l0.005,0.086c0.091,1.129,0.774,2.078,1.717,2.545l0.548,0.207c0.153,0.043,0.312,0.075,0.478,0.094
	c0.159,0.013,0.325,0.019,0.486,0.011c0.051-0.003,0.102-0.008,0.15-0.013c0.005,0,0.005,0,0.008,0l13.199-0.07
	c1.018,0.003,1.84,1.18,1.84,2.633c-0.003,1.454-0.83,2.631-1.848,2.628l-5.263-0.005c-0.003-0.003-0.005-0.003-0.008-0.003
	c-0.132-0.016-0.269-0.021-0.403-0.013c-0.046,0.003-0.094,0.008-0.14,0.013c-0.341,0.038-0.656,0.153-0.932,0.319
	c-0.167,0.102-0.317,0.223-0.454,0.362c-0.046,0.046-0.089,0.094-0.129,0.145c-0.287,0.349-0.476,0.783-0.527,1.255
	c-0.003,0.013-0.005,0.027-0.005,0.038c0.003,0.021,0,0.04,0,0.064c-0.005,0.051-0.005,0.102-0.008,0.15
	c0,0.046,0.003,0.091,0.005,0.139l0.003,0.064c0.091,1.091,0.905,1.96,1.937,2.135c0.048,0.011,0.094,0.016,0.142,0.021
	c0.121,0.016,0.244,0.016,0.368,0.008c0.04,0,0.078-0.003,0.116-0.008c0.003,0,0.003,0,0.005,0c0.048-0.005,0.099-0.013,0.148-0.021
	l11.499,0.019c1.475,0,2.665,1.18,2.662,2.633c0,1.454-1.198,2.628-2.67,2.628l-15.846-0.024c-0.134-0.013-0.271-0.019-0.408-0.011
	l-0.105,0.008c-0.019,0.003-0.038,0.005-0.056,0.008c-0.395,0.043-0.76,0.172-1.083,0.367c-0.191,0.121-0.365,0.26-0.524,0.421
	c-0.054,0.054-0.102,0.107-0.15,0.166c-0.33,0.405-0.551,0.909-0.61,1.456c0,0.016-0.003,0.032-0.003,0.046
	c0,0.024-0.005,0.046-0.005,0.072c-0.005,0.056-0.005,0.115-0.008,0.174c0,0.051,0,0.105,0.005,0.161l0.003,0.075
	c0.11,1.298,1.096,2.32,2.332,2.489c0.027,0.005,0.054,0.005,0.081,0.011c0.14,0.016,0.285,0.019,0.43,0.011
	c0.043-0.003,0.089-0.005,0.132-0.011c0.003,0,0.003,0,0.005,0c0.027-0.003,0.056-0.005,0.086-0.013l11.961,0.021
	c0.956,0,1.73,1.177,1.73,2.631c-0.003,1.454-0.782,2.631-1.741,2.631l-7.353-0.008c-0.277-0.075-0.57-0.115-0.87-0.115
	c-0.298,0-0.588,0.038-0.862,0.113c-1.451,0.381-2.52,1.698-2.52,3.264c0,1.515,0.999,2.797,2.375,3.223h0.003
	c0.317,0.099,0.656,0.153,1.005,0.153c0.266,0,0.524-0.029,0.771-0.091c5.666,0.072,10.349-1.199,13.605-3.709
	c4-3.033,6.52-7.812,7.219-13.924C49.264,16.042,47.757,11.481,44.67,8.034z"/>
<ellipse fill="#E62A2B" cx="17.044" cy="36.532" rx="3.248" ry="3.242"/>
<circle fill="#E62A2B" cx="8.462" cy="36.532" r="1.358"/>
</svg>
