<?xml version="1.0" encoding="utf-8"?>
<!-- Generator: Adobe Illustrator 17.0.0, SVG Export Plug-In . SVG Version: 6.00 Build 0)  -->
<!DOCTYPE svg PUBLIC "-//W3C//DTD SVG 1.1//EN" "http://www.w3.org/Graphics/SVG/1.1/DTD/svg11.dtd">
<svg version="1.1" id="Layer_1" xmlns="http://www.w3.org/2000/svg" xmlns:xlink="http://www.w3.org/1999/xlink" x="0px" y="0px"
	 width="133px" height="41px" viewBox="0 0 133 41" enable-background="new 0 0 133 41" xml:space="preserve">
<g>
	<g>
		<path fill="#FFFFFF" d="M72.888,13.322c0-1.294-0.24-2.523-0.712-3.66c-0.471-1.128-1.137-2.135-1.96-2.967
			c-0.832-0.841-1.83-1.507-2.967-1.987c-2.264-0.961-5.13-0.961-7.404,0c-1.137,0.481-2.135,1.146-2.958,1.987
			c-0.832,0.832-1.488,1.839-1.96,2.967c-0.481,1.137-0.721,2.366-0.721,3.66c0,1.285,0.24,2.514,0.721,3.651
			c0.462,1.137,1.128,2.135,1.96,2.976c0.832,0.832,1.821,1.507,2.958,1.987c1.137,0.481,2.385,0.721,3.706,0.721
			c0.693,0,1.368-0.074,2.015-0.213c0.518-0.111,1.017-0.259,1.488-0.444l0.915,1.359l0.462,0.684c0,0-0.055-0.776,0.684-1.849
			c0.536-0.776,1.812-1.155,1.812-1.155l-0.259-0.407l-0.444-0.702c0.795-0.786,1.423-1.719,1.886-2.773
			C72.629,15.984,72.888,14.69,72.888,13.322z M67.869,16.418l-1.747-2.653c0,0-1.701,0.074-1.932,2.107
			c-0.194,1.673,0.555,2.671,0.555,2.671c-0.092,0.028-0.194,0.046-0.287,0.065c-0.943,0.185-2.052,0.065-2.949-0.305
			c-0.629-0.259-1.192-0.629-1.655-1.091c-0.471-0.462-0.841-1.026-1.109-1.682c-0.268-0.665-0.407-1.405-0.407-2.209
			c0-0.813,0.139-1.553,0.407-2.218c0.268-0.656,0.638-1.22,1.109-1.682c0.462-0.462,1.026-0.823,1.655-1.081
			c0.629-0.268,1.312-0.397,2.043-0.397c0.721,0,1.414,0.129,2.043,0.397c0.629,0.259,1.183,0.619,1.654,1.081
			c0.462,0.462,0.841,1.026,1.1,1.682c0.277,0.666,0.407,1.414,0.407,2.218c0,0.73-0.111,1.405-0.333,2.006
			C68.275,15.725,68.09,16.086,67.869,16.418z"/>
		<path fill="#FFFFFF" d="M84.184,15.241c0,0.519-0.066,1.001-0.194,1.433c-0.125,0.414-0.311,0.775-0.556,1.075
			c-0.243,0.296-0.539,0.522-0.904,0.692c-0.719,0.332-1.84,0.342-2.578,0c-0.367-0.17-0.663-0.396-0.905-0.692
			c-0.244-0.298-0.431-0.66-0.556-1.074c-0.129-0.43-0.194-0.912-0.194-1.433V4.361h-4.128v10.69c0,1.172,0.169,2.235,0.502,3.158
			c0.336,0.932,0.815,1.74,1.424,2.399c0.614,0.666,1.369,1.18,2.245,1.528c0.866,0.345,1.838,0.52,2.888,0.52
			c1.069,0,2.052-0.188,2.922-0.56c0.872-0.372,1.627-0.9,2.246-1.571c0.617-0.667,1.098-1.48,1.426-2.415
			c0.325-0.923,0.489-1.953,0.489-3.06V4.361h-4.128L84.184,15.241L84.184,15.241z"/>
		<rect x="90.425" y="4.361" fill="#FFFFFF" width="4.128" height="17.915"/>
		<path fill="#FFFFFF" d="M109.487,16.638c-0.527,0.659-1.137,1.173-1.813,1.529c-1.219,0.644-2.973,0.704-4.371,0.145
			c-0.636-0.252-1.195-0.614-1.662-1.074c-0.468-0.459-0.844-1.027-1.12-1.688c-0.274-0.659-0.414-1.409-0.414-2.23
			c0-0.821,0.14-1.571,0.414-2.23c0.276-0.66,0.653-1.228,1.121-1.688c0.466-0.46,1.024-0.821,1.661-1.075
			c1.359-0.541,3.076-0.501,4.181,0.086c0.603,0.32,1.145,0.755,1.612,1.294l0.32,0.37l2.925-2.832l-0.296-0.331
			c-0.847-0.945-1.828-1.678-2.917-2.177c-1.091-0.5-2.366-0.754-3.787-0.754c-1.323,0-2.569,0.244-3.704,0.725
			c-1.134,0.48-2.128,1.144-2.958,1.973c-0.83,0.83-1.494,1.826-1.974,2.959c-0.481,1.137-0.725,2.376-0.725,3.68
			c0,1.305,0.244,2.543,0.725,3.68c0.48,1.134,1.144,2.13,1.974,2.959c0.83,0.83,1.825,1.494,2.959,1.974
			c1.136,0.481,2.383,0.725,3.704,0.725c1.469,0,2.82-0.282,4.016-0.839c1.196-0.556,2.248-1.377,3.127-2.438l0.276-0.333
			l-2.956-2.802L109.487,16.638z"/>
		<polygon fill="#FFFFFF" points="122.608,12.068 128.629,5.187 128.629,4.361 124.086,4.361 118.354,11.078 118.354,4.361 
			114.225,4.361 114.225,22.277 118.354,22.277 118.354,17.003 119.799,15.329 124.652,22.277 129.27,22.277 129.27,21.478 		"/>
	</g>
	<path fill="#FFFFFF" d="M71.188,21.432c0,0-1.276,0.379-1.812,1.155c-0.739,1.072-0.684,1.849-0.684,1.849l-0.462-0.684v-0.055
		c0-1.479,1.192-2.671,2.662-2.671h0.037L71.188,21.432z"/>
</g>
<path fill="#E62A2B" d="M18.489,12.438H11.61c-1.326,0-2.401,1.073-2.401,2.399c0,1.22,0.914,2.228,2.095,2.376
	c0.101,0.013,0.202,0.021,0.306,0.021s0.208-0.008,0.309-0.021h6.267c0.099,0.013,0.2,0.021,0.304,0.021s0.205-0.008,0.306-0.021
	c1.181-0.15,2.095-1.158,2.095-2.376C20.89,13.513,19.815,12.438,18.489,12.438z"/>
<path fill="#E62A2B" d="M13.605,22.339H5.618c-1.54,0-2.788,1.245-2.788,2.786c0,1.417,1.061,2.587,2.432,2.759
	c0.118,0.015,0.235,0.024,0.356,0.024s0.241-0.009,0.359-0.024h7.275c0.115,0.015,0.232,0.024,0.353,0.024s0.238-0.009,0.356-0.024
	c1.371-0.174,2.432-1.345,2.432-2.759C16.393,23.588,15.145,22.339,13.605,22.339z"/>
<path fill="#FFFFFF" d="M44.67,8.034c-3.028-3.441-7.939-5.632-15.096-6.447c-3.544-0.402-7.273-0.483-10.228-0.424
	C19.343,1.16,19.341,1.16,19.338,1.16c-0.132-0.011-0.266-0.013-0.4-0.005c-0.064,0.003-0.126,0.011-0.188,0.016
	c-0.016,0-0.035,0.005-0.051,0.008c-0.116,0-0.231,0.005-0.344,0.008L18.35,1.244c-0.296,0.078-0.572,0.196-0.827,0.351
	c-0.218,0.134-0.416,0.292-0.599,0.477c-0.059,0.062-0.116,0.123-0.169,0.19c-0.379,0.459-0.629,1.032-0.696,1.655
	c-0.003,0.019-0.003,0.035-0.003,0.051c0,0.029-0.005,0.054-0.005,0.083c-0.005,0.067-0.005,0.134-0.008,0.201
	c0,0.059,0,0.118,0.005,0.182l0.005,0.086c0.091,1.129,0.774,2.078,1.717,2.545l0.548,0.207c0.153,0.043,0.312,0.075,0.478,0.094
	c0.159,0.013,0.325,0.019,0.486,0.011c0.051-0.003,0.102-0.008,0.15-0.013c0.005,0,0.005,0,0.008,0l13.199-0.07
	c1.018,0.003,1.84,1.18,1.84,2.633c-0.003,1.454-0.83,2.631-1.848,2.628l-5.263-0.005c-0.003-0.003-0.005-0.003-0.008-0.003
	c-0.132-0.016-0.269-0.021-0.403-0.013c-0.046,0.003-0.094,0.008-0.14,0.013c-0.341,0.038-0.656,0.153-0.932,0.319
	c-0.167,0.102-0.317,0.223-0.454,0.362c-0.046,0.046-0.089,0.094-0.129,0.145c-0.287,0.349-0.476,0.783-0.527,1.255
	c-0.003,0.013-0.005,0.027-0.005,0.038c0.003,0.021,0,0.04,0,0.064c-0.005,0.051-0.005,0.102-0.008,0.15
	c0,0.046,0.003,0.091,0.005,0.139l0.003,0.064c0.091,1.091,0.905,1.96,1.937,2.135c0.048,0.011,0.094,0.016,0.142,0.021
	c0.121,0.016,0.244,0.016,0.368,0.008c0.04,0,0.078-0.003,0.116-0.008c0.003,0,0.003,0,0.005,0c0.048-0.005,0.099-0.013,0.148-0.021
	l11.499,0.019c1.475,0,2.665,1.18,2.662,2.633c0,1.454-1.198,2.628-2.67,2.628l-15.846-0.024c-0.134-0.013-0.271-0.019-0.408-0.011
	l-0.105,0.008c-0.019,0.003-0.038,0.005-0.056,0.008c-0.395,0.043-0.76,0.172-1.083,0.367c-0.191,0.121-0.365,0.26-0.524,0.421
	c-0.054,0.054-0.102,0.107-0.15,0.166c-0.33,0.405-0.551,0.909-0.61,1.456c0,0.016-0.003,0.032-0.003,0.046
	c0,0.024-0.005,0.046-0.005,0.072c-0.005,0.056-0.005,0.115-0.008,0.174c0,0.051,0,0.105,0.005,0.161l0.003,0.075
	c0.11,1.298,1.096,2.32,2.332,2.489c0.027,0.005,0.054,0.005,0.081,0.011c0.14,0.016,0.285,0.019,0.43,0.011
	c0.043-0.003,0.089-0.005,0.132-0.011c0.003,0,0.003,0,0.005,0c0.027-0.003,0.056-0.005,0.086-0.013l11.961,0.021
	c0.956,0,1.73,1.177,1.73,2.631c-0.003,1.454-0.782,2.631-1.741,2.631l-7.353-0.008c-0.277-0.075-0.57-0.115-0.87-0.115
	c-0.298,0-0.588,0.038-0.862,0.113c-1.451,0.381-2.52,1.698-2.52,3.264c0,1.515,0.999,2.797,2.375,3.223h0.003
	c0.317,0.099,0.656,0.153,1.005,0.153c0.266,0,0.524-0.029,0.771-0.091c5.666,0.072,10.349-1.199,13.605-3.709
	c4-3.033,6.52-7.812,7.219-13.924C49.264,16.042,47.757,11.481,44.67,8.034z"/>
<ellipse fill="#E62A2B" cx="17.044" cy="36.532" rx="3.248" ry="3.242"/>
<circle fill="#E62A2B" cx="8.462" cy="36.532" r="1.358"/>
<g>
	<path fill="#E62A2B" d="M70.08,33.09c0,3.463-1.699,5.194-5.096,5.194h-3.173v-10.28h3.173C68.382,28.004,70.08,29.699,70.08,33.09
		z M68.717,33.09c0-0.602-0.058-1.142-0.174-1.62c-0.116-0.477-0.317-0.883-0.602-1.215c-0.285-0.332-0.669-0.586-1.151-0.763
		c-0.482-0.176-1.089-0.265-1.821-0.265h-1.832v7.834h1.832c0.727,0,1.331-0.09,1.814-0.269c0.482-0.179,0.867-0.44,1.155-0.783
		c0.288-0.343,0.49-0.759,0.606-1.25C68.659,34.269,68.717,33.713,68.717,33.09z"/>
	<path fill="#E62A2B" d="M82.249,38.284h-7.466v-10.28h7.239v1.223h-5.914v3.123h5.528v1.223h-5.528v3.489h6.141
		C82.249,37.062,82.249,38.284,82.249,38.284z"/>
	<path fill="#E62A2B" d="M90.767,38.463c-0.707,0-1.324-0.086-1.851-0.257c-0.528-0.171-0.967-0.411-1.318-0.72
		c-0.351-0.309-0.617-0.676-0.799-1.102c-0.182-0.426-0.28-0.895-0.295-1.409h1.272c0.035,0.389,0.136,0.727,0.303,1.012
		s0.38,0.522,0.64,0.709s0.559,0.325,0.897,0.413c0.338,0.088,0.699,0.132,1.083,0.132c0.373,0,0.713-0.04,1.018-0.12
		s0.567-0.197,0.784-0.35c0.217-0.153,0.385-0.338,0.504-0.553c0.119-0.215,0.178-0.458,0.178-0.728c0-0.28-0.054-0.519-0.163-0.717
		c-0.109-0.197-0.285-0.369-0.53-0.514c-0.245-0.145-0.566-0.276-0.962-0.393c-0.396-0.117-0.885-0.237-1.465-0.362
		c-0.56-0.129-1.044-0.279-1.45-0.448c-0.406-0.169-0.74-0.366-0.999-0.592c-0.26-0.226-0.453-0.484-0.579-0.775
		s-0.189-0.628-0.189-1.012c0-0.41,0.086-0.791,0.258-1.141s0.414-0.651,0.727-0.903c0.313-0.252,0.688-0.449,1.124-0.592
		c0.437-0.143,0.92-0.214,1.45-0.214c0.56,0,1.072,0.07,1.533,0.21s0.861,0.344,1.196,0.611c0.336,0.268,0.598,0.592,0.788,0.974
		c0.189,0.381,0.292,0.814,0.307,1.296h-1.28c-0.136-1.241-0.964-1.861-2.484-1.861c-0.742,0-1.314,0.142-1.715,0.425
		c-0.402,0.283-0.602,0.666-0.602,1.148c0,0.218,0.037,0.404,0.11,0.557s0.199,0.288,0.379,0.405
		c0.179,0.117,0.415,0.223,0.708,0.319c0.293,0.096,0.659,0.191,1.098,0.284c0.298,0.062,0.604,0.13,0.92,0.203
		c0.316,0.073,0.624,0.162,0.924,0.269s0.583,0.235,0.848,0.386c0.265,0.15,0.497,0.332,0.697,0.545
		c0.199,0.213,0.357,0.465,0.473,0.756s0.174,0.631,0.174,1.02c0,0.452-0.092,0.867-0.276,1.246
		c-0.184,0.379-0.442,0.705-0.772,0.978c-0.331,0.272-0.723,0.485-1.178,0.639C91.797,38.386,91.302,38.463,90.767,38.463z"/>
	<path fill="#E62A2B" d="M100.694,38.284h-1.318v-10.28h1.318V38.284z"/>
	<path fill="#E62A2B" d="M110.34,38.463c-0.722,0-1.38-0.127-1.973-0.382c-0.593-0.254-1.102-0.615-1.526-1.082
		s-0.752-1.028-0.985-1.682c-0.232-0.654-0.348-1.381-0.348-2.18c0-0.81,0.116-1.542,0.348-2.196s0.559-1.212,0.981-1.674
		c0.421-0.462,0.926-0.817,1.515-1.067c0.588-0.249,1.235-0.374,1.942-0.374c0.595,0,1.148,0.078,1.658,0.234
		c0.51,0.156,0.957,0.378,1.34,0.666c0.384,0.288,0.694,0.635,0.932,1.04c0.237,0.405,0.379,0.859,0.424,1.362h-1.378
		c-0.025-0.332-0.112-0.631-0.261-0.895c-0.149-0.265-0.351-0.488-0.606-0.67c-0.255-0.182-0.559-0.321-0.912-0.417
		c-0.354-0.096-0.745-0.144-1.174-0.144c-0.51,0-0.975,0.091-1.397,0.272c-0.421,0.182-0.784,0.449-1.086,0.802
		c-0.303,0.353-0.538,0.787-0.704,1.301s-0.25,1.1-0.25,1.76c0,0.654,0.084,1.238,0.25,1.752c0.167,0.514,0.402,0.949,0.704,1.304
		c0.303,0.356,0.666,0.628,1.09,0.817c0.424,0.19,0.891,0.284,1.401,0.284c0.732,0,1.363-0.121,1.893-0.362
		c0.53-0.242,0.972-0.606,1.325-1.094v-1.573h-2.635v-1.23h3.93v5.249h-0.954l-0.341-1.082
		C112.862,38.042,111.794,38.463,110.34,38.463z"/>
	<path fill="#E62A2B" d="M127.582,38.284h-1.355l-5.248-8.107v8.107h-1.257v-10.28h1.37l5.225,8.123v-8.123h1.264L127.582,38.284
		L127.582,38.284z"/>
</g>
</svg>
