<?xml version="1.0" encoding="utf-8"?>
<!-- Generator: Adobe Illustrator 17.0.0, SVG Export Plug-In . SVG Version: 6.00 Build 0)  -->
<!DOCTYPE svg PUBLIC "-//W3C//DTD SVG 1.1//EN" "http://www.w3.org/Graphics/SVG/1.1/DTD/svg11.dtd">
<svg version="1.1" id="Layer_1" xmlns="http://www.w3.org/2000/svg" xmlns:xlink="http://www.w3.org/1999/xlink" x="0px" y="0px"
	 width="200px" height="200px" viewBox="0 0 200 200" enable-background="new 0 0 200 200" xml:space="preserve">
<path fill="#EE3438" d="M170,120.12c0-2.049,0-4.098,0-6.147c0-0.684,1.041-1.368,0.443-2.053c-0.002-2.049,0.216-4.098,0.214-6.147
	c0.31-0.696,0.689-1.389-0.02-2.019c-0.398-1.488-0.74-2.975-1.137-4.463c-0.171-0.614-0.103-1.325-0.76-1.715
	c-0.691-1.073-1.368-2.146-2.059-3.219c-0.247-0.817-0.865-1.294-1.543-1.721c-0.978-0.815-1.952-1.63-2.93-2.445
	c-0.334-0.998-1.39-0.78-2.054-1.223c-1.092-0.431-2.182-0.861-3.274-1.292c-0.797-1.131-2.062-0.271-3.022-0.711
	c-2.782-0.038-2.885-0.038-2.754-2.512c0.29-0.684,0.897-1.368-0.103-2.053c0-2.049,0-4.098,0-6.147c1-0.684,1-1.368,0-2.053
	c0-2.049,0-4.098,0-6.147c1-0.684,1-1.368,0-2.053c0-2.049,0-4.098,0-6.147c1-0.684,0.702-1.368,0.104-2.053
	c-0.039-1.581-0.026-3.162-0.065-4.744c-0.567-0.959,0.614-2.127-0.341-3.039c-0.288-1.456-0.564-2.911-0.853-4.367
	c-0.289-0.856,0.28-1.953-0.732-2.604c-0.422-1.225-0.841-2.449-1.263-3.674c-0.389-0.639,0.081-1.637-0.854-2.048
	c-0.691-1.364-1.381-2.729-2.072-4.093c0.085-0.616-0.218-1.002-0.743-1.258c-0.698-1.063-1.397-2.127-2.095-3.19
	c-0.352-0.618-0.361-1.491-1.267-1.695c-0.803-0.949-1.606-1.898-2.409-2.846c-0.283-0.812-0.872-1.33-1.622-1.692
	c-0.834-0.783-1.668-1.565-2.502-2.348c-0.215-0.833-0.902-1.098-1.611-1.336c-1.094-0.807-2.189-1.614-3.283-2.421
	c-0.215-0.569-0.593-0.886-1.232-0.803c-1.224-0.701-2.448-1.401-3.672-2.102c-0.435-0.498-0.929-0.874-1.64-0.817
	c-1.365-0.561-2.73-1.122-4.095-1.683c-0.54-0.755-1.377-0.658-2.149-0.748c-1.198-0.308-2.397-0.616-3.595-0.925
	c-1.062-0.601-2.219-0.743-3.413-0.711c-1.593-0.164-3.186-0.327-4.779-0.491c-0.673-0.637-1.362-0.322-2.05-0.032
	c-2.049-0.001-4.098-0.002-6.147-0.003c-0.685-0.598-1.369-0.29-2.053,0.003c-2.188,0.16-4.376,0.321-6.563,0.481
	c-0.914-0.412-1.692-0.046-2.451,0.43c-2.731,0.814-5.463,1.627-8.194,2.441c-1.813,0.011-3.148,1.073-4.52,2.053
	c-2.055,1.31-4.163,2.546-6.157,3.945c-6.472,4.539-11.292,10.542-15.156,17.368c-0.977,1.374-2.044,2.707-2.053,4.52
	c-0.814,2.732-1.627,5.463-2.441,8.195c-0.475,0.759-0.842,1.537-0.43,2.452c-0.16,2.188-0.379,4.375-0.539,6.563
	C45.768,57.267,46,57.951,46,58.636c0,2.049,0,4.098,0,6.147c0,0.684,0,1.368,0,2.053c0,2.049,0,4.098,0,6.147
	c0,0.684-0.54,1.368,0.058,2.053c0,2.049,0.03,4.097,0.031,6.146c-0.277,0.611-0.514,1.229-0.49,1.922
	c0.029,3.053,0.036,3.053-2.228,3.434c-1.474,0.283-2.934,0.593-4.156,1.553c-5.405,2.29-9.249,6.138-11.54,11.541
	c-1.071,1.23-1.211,2.706-1.121,4.244c-0.039,1.728-0.296,3.457-0.335,5.185c-0.29,0.684-0.219,1.368-0.219,2.053
	c0,2.049,0,4.098,0,6.147c0,0.684,0,1.368,0,2.053c0,2.049,0,4.098,0,6.147c0,0.684,0,1.368,0,2.053c0,2.049,0,4.098,0,6.147
	c0,0.684,0,1.368,0,2.053c0,2.049,0,4.098,0,6.147c0,0.684,0,1.368,0,2.053c0,2.049,0,4.098,0,6.147c0,0.684,0,1.368,0,2.053
	c0,2.049,0,4.098,0,6.147c0,0.684,0,1.368,0,2.053c0,2.049,0,4.098,0,6.147c0,0.684-0.38,1.368,0.218,2.053
	c0.027,2.048,0.164,4.095,0.191,6.143c-0.245,0.621-0.098,1.173,0.386,1.647c0.434,1.359,0.895,2.718,1.329,4.077
	c0.296,0.735,0.303,1.636,1.149,2.069c0.709,0.967,1.425,1.934,2.134,2.9c0.366,0.713,0.909,1.252,1.621,1.618
	c0.967,0.709,1.935,1.418,2.902,2.127c0.433,0.846,1.335,0.84,2.07,1.136c1.359,0.434,2.718,0.867,4.077,1.301
	c0.474,0.485,1.026,0.578,1.647,0.332c2.048,0.027,4.095,0.085,6.143,0.112c0.684,0.598,1.369,0.03,2.053,0.03
	c2.049,0,4.098,0,6.147,0c0.684,0,1.368,0,2.053,0c2.049,0,4.098,0,6.147,0c0.684,0,1.369,0,2.053,0c2.049,0,4.098,0,6.147,0
	c0.684,0,1.369,0,2.053,0c2.049,0,4.098,0,6.147,0c0.684,0,1.369,0,2.053,0c2.049,0,4.098,0,6.147,0c0.684,0,1.369,0,2.053,0
	c2.049,0,4.098,0,6.147,0c0.684,0,1.368,0,2.053,0c2.049,0,4.098,0,6.147,0c0.684,0,1.369,0,2.053,0c2.049,0,4.098,0,6.147,0
	c0.684,0,1.369,0,2.053,0c2.049,0,4.098,0,6.147,0c0.684,0,1.369,0,2.053,0c2.049,0,4.098,0,6.147,0c0.684,0,1.368,0,2.053,0
	c2.049,0,4.098,0,6.147,0c0.684,0,1.368,0,2.053,0c2.049,0,4.098,0,6.147,0c0.684,0,1.368,0.259,2.053-0.03
	c1.875-0.174,3.751-0.363,5.626-0.536c1.953,0.006,3.582-0.795,5.026-2.044c2.966-1.94,5.419-4.398,7.36-7.363
	c1.248-1.444,2.041-3.075,2.037-5.027c0.174-1.876-0.095-3.752,0.078-5.628c0.29-0.684-0.442-1.369-0.442-2.054
	c0-2.049,0-4.098,0-6.147c0-0.684,0-1.368,0-2.053c0-2.049,0-4.098,0-6.147c0-0.684,0-1.368,0-2.053c0-2.049,0-4.098,0-6.147
	c0-0.684,0-1.368,0-2.053c0-2.049,0-4.098,0-6.147c0-0.684,0-1.368,0-2.053c0-2.049,0-4.098,0-6.147c0-0.684,0-1.368,0-2.053
	c0-2.049,0-4.098,0-6.147C170,121.488,170,120.804,170,120.12z M106.38,143.302c-0.633,0.496-1.38,0.823-1.38,1.84
	c0,0.683,0,1.366,0,2.049c0,2.05,0,4.1,0,6.15c0,0.683,0,1.366,0,2.049c0,1.354,0.216,2.712,0.14,4.061
	c-0.265,4.74-4.961,7.48-9.278,5.377c-0.753-0.146-1.286-0.574-1.682-1.218c-0.932-0.705-2.167-1.62-2.279-2.797
	c-0.611-0.939-0.9-1.969-0.9-2.975c0-2.05,0-4.1,0-6.15c0-0.683,0-1.366,0-2.049c0-1.878,0.51-3.757,0.472-5.635
	c-0.7-0.261-1.082-0.658-1.526-1.271c-1.027-0.6-1.588-1.461-2.13-2.508c-0.612-0.562-0.917-1.249-1.098-2.06
	c-0.568-0.848-0.856-1.77-0.836-2.803c-0.582-1.686-0.551-3.372,0.02-5.058c0.679-5.06,5.155-9.525,10.215-10.204
	c0.177-0.092,0.355-0.151,0.508-0.149c1.52-0.414,3.043-0.373,4.564,0.149c1.03-0.021,1.955,0.3,2.8,0.872
	c0.828,0.167,1.522,0.569,2.093,1.188c1.259,0.658,2.254,1.592,2.95,2.836c0.454,0.288,0.708,0.713,0.836,1.224
	c0.89,1.224,1.47,2.564,1.53,4.098c0.434,0.656,0.345,1.383,0.272,2.114C111.863,136.994,109.902,140.542,106.38,143.302z
	 M131.316,86.167C130.088,87.287,126.741,86,124.5,86c-0.685,0-1.371,0-2.056,0c-2.048,0-4.095,0-6.143,0c-0.685,0-1.371,0-2.056,0
	c-2.048,0-4.095,0-6.143,0c-0.685,0-1.371,0-2.056,0c-2.048,0-4.095,0-6.143,0c-0.685,0-1.371,0-2.056,0c-2.048,0-4.095,0-6.143,0
	c-0.685,0-1.371,0-2.056,0c-2.048,0-4.095,0-6.143,0c-0.685,0-1.371,0-2.056,0c-2.048,0-4.095,0-6.143,0c-0.685,0-1.371,0-2.056,0
	c-2.048,0-4.095,0-6.143,0C66.047,86,66,86.746,66,85.682c0-2.05,0-4.1,0-6.15c0-0.683,0-1.366,0-2.049c0-2.05,0-4.1,0-6.15
	c0-0.683,0-1.366,0-2.049c0-2.05,0-4.1,0-6.15c0-0.683,0-1.366,0-2.049c0-1.368,0-2.735,0-4.103c0-1.803,0.061-3.551,0.558-5.276
	c0.009-0.14,0.033-0.293,0.117-0.488c1.84-9.144,7.181-15.609,15.244-19.993c2.261-1.229,5.137-3.408,7.756-3.657
	c0.194-0.083-0.424-0.567,0,0C91.402,27.069,93.163,26,94.968,26c1.365,0,2.729,0,4.094,0c0.685,0,1.371,0,2.056,0
	c1.933,0,3.844,0.939,5.732,1.39c0.599-0.098,1.128,0.495,1.649,0.746c1.457,0.125,2.809,0.896,4.107,1.545
	c0.92,0.212,1.781,0.703,2.523,1.303c1.065,0.318,2.004,0.932,2.818,1.688c0.68,0.211,1.232,0.644,1.666,1.206
	c1.304,0.722,2.368,1.737,3.283,2.902c0.544,0.311,0.958,0.754,1.225,1.323c1.039,0.911,1.853,1.996,2.444,3.246
	c0.554,0.443,0.829,1.067,1.085,1.701c0.797,1.272,1.527,2.575,1.822,4.072c0.42,0.628,0.702,1.304,0.712,2.074
	c0.589,1.442,1.245,2.932,1.205,4.499c0.473,1.062,0.611,2.177,0.611,3.289c0,1.507,0,3.014,0,4.52c0,0.683,0,1.366,0,2.049
	c0,2.05,0,4.1,0,6.15c0,0.683,0,1.366,0,2.049c0,2.05,0,4.1,0,6.15c0,0.683,0,1.366,0,2.049
	C132,82.246,132.715,84.891,131.316,86.167z"/>
</svg>
