<?xml version="1.0" encoding="utf-8"?>
<!-- Generator: Adobe Illustrator 17.0.0, SVG Export Plug-In . SVG Version: 6.00 Build 0)  -->
<!DOCTYPE svg PUBLIC "-//W3C//DTD SVG 1.1//EN" "http://www.w3.org/Graphics/SVG/1.1/DTD/svg11.dtd">
<svg version="1.1" id="Layer_1" xmlns="http://www.w3.org/2000/svg" xmlns:xlink="http://www.w3.org/1999/xlink" x="0px" y="0px"
	 width="200px" height="200px" viewBox="0 0 200 200" enable-background="new 0 0 200 200" xml:space="preserve">
<path fill="#EE3438" d="M92.32,4.018c46.677,0.011,82.341,28.23,92.013,67.985c1.375,5.652-1.266,10.546-6.406,11.871
	c-4.717,1.216-9.107-1.849-10.752-7.477c-8.349-28.565-26.954-46.349-55.891-53.446c-4.247-1.042-5.566,0.048-5.096,4.294
	c0.265,2.394,0.361,4.894-0.445,7.272c-1.383,4.078-4.271,6.118-8.536,5.742c-4.255-0.375-6.838-2.834-7.334-7.137
	c-0.223-1.932-0.292-3.932-0.057-5.855c0.507-4.158-0.818-5.397-5.093-4.432c-10.122,2.286-19.51,6.069-28.052,12
	c-2.155,1.496-3.016,2.6-0.555,4.604c1.757,1.43,3.321,3.14,4.775,4.888c2.975,3.577,2.78,8.488-0.309,11.492
	c-3.122,3.035-7.911,3.031-11.448-0.115c-1.701-1.513-3.349-3.112-4.84-4.83c-1.485-1.711-2.48-2.096-4.019,0.082
	c-6.595,9.332-10.705,19.635-12.685,30.855c-0.401,2.274,0.43,2.867,2.548,2.764c2.6-0.127,5.227-0.182,7.816,0.039
	c4.815,0.411,8.005,3.809,8.003,8.234c-0.002,4.65-3.374,7.893-8.506,8.159c-0.813,0.042-1.629,0.011-2.444,0.014
	c-8.265,0.032-8.35,0.052-6.459,7.968c2.173,9.101,5.987,17.476,11.338,25.187c1.615,2.328,2.766,2.705,4.68,0.43
	c1.461-1.737,3.157-3.302,4.89-4.777c3.481-2.964,7.984-2.935,11.09-0.064c3.04,2.81,3.746,7.861,0.823,11.066
	c-4.932,5.408-10.146,10.595-15.581,15.498c-3.349,3.021-7.819,2.202-11.372-1.307C0.798,121.814,0.796,64.488,34.428,30.756
	C52.078,13.054,73.502,4.355,92.32,4.018z"/>
<path fill="#EE3438" d="M126.211,174.521c-3.778,0.066-6.226-1.312-8.383-3.51c-4.795-4.884-9.952-9.445-14.413-14.612
	c-3.04-3.522-4.68-2.68-7.473,0.186c-11.146,11.437-22.536,22.635-33.841,33.916c-1.037,1.035-2.036,2.132-3.192,3.019
	c-4.164,3.196-9.333,2.776-12.762-0.949c-3.181-3.457-3.395-8.764-0.119-12.433c3.251-3.641,6.829-6.993,10.284-10.45
	c11.752-11.757,23.493-23.524,35.278-35.247c5.872-5.841,10.374-5.789,16.309,0.097c5.091,5.049,10.228,10.057,15.171,15.25
	c1.795,1.885,2.807,1.75,4.572-0.052c8.665-8.849,17.405-17.627,26.283-26.26c2.152-2.092,1.733-3.323-0.262-4.943
	c-1.258-1.021-2.435-2.191-3.454-3.451c-3.549-4.394-1.971-10.418,3.524-11.554c10.345-2.139,20.796-3.836,31.265-5.267
	c4.515-0.617,7.918,3.601,7.21,8.334c-1.445,9.655-2.955,19.303-4.69,28.909c-1.232,6.823-7.577,8.725-12.855,4.057
	c-5.527-4.887-5.53-4.89-10.759,0.35c-10.245,10.266-20.503,20.521-30.717,30.817C131.049,172.883,128.749,174.552,126.211,174.521z
	"/>
<path fill="#EE3438" d="M78.734,92.182c0.473-10.089,8.285-18.212,18.393-18.569c3.016-0.107,5.168-1.099,7.366-2.894
	c7.427-6.064,14.941-12.02,22.435-18.001c4.535-3.62,8.572-3.901,11.777-0.867c3.47,3.286,3.463,7.522-0.223,12.151
	c-6.174,7.754-12.399,15.469-18.694,23.126c-1.613,1.962-2.405,3.904-2.456,6.553c-0.202,10.616-9.267,19.052-19.725,18.689
	C86.826,111.996,78.236,102.806,78.734,92.182z"/>
</svg>
