<?xml version="1.0" encoding="utf-8"?>
<!-- Generator: Adobe Illustrator 17.0.0, SVG Export Plug-In . SVG Version: 6.00 Build 0)  -->
<!DOCTYPE svg PUBLIC "-//W3C//DTD SVG 1.1//EN" "http://www.w3.org/Graphics/SVG/1.1/DTD/svg11.dtd">
<svg version="1.1" id="Layer_1" xmlns="http://www.w3.org/2000/svg" xmlns:xlink="http://www.w3.org/1999/xlink" x="0px" y="0px"
	 width="200px" height="200px" viewBox="0 0 200 200" enable-background="new 0 0 200 200" xml:space="preserve">
<g>
	<path fill="#EE3438" d="M21.148,131.01c-1.883-1.206-3.652-2.669-5.671-3.565c-4.588-2.037-4.573-5.009-3.168-9.336
		c1.345-4.141,3.226-5.655,7.591-5.29c3.093,0.258,6.326,1.324,9.326-2.196c3.398-3.988,1.438-7.093,0.409-10.714
		c-0.547-1.925-2.675-3.998-1.148-5.814c2.201-2.618,5.073-5.138,8.327-5.899c2.57-0.601,4.52,2.474,6.512,4.139
		c2.64,2.208,4.937,2.843,8.47,1.712c3.284-1.052,3.93-3.152,4.689-5.748c2.582-8.836,2.594-8.783,11.617-7.908
		c1.725,0.167,2.768,0.604,3.156,2.437c0.401,1.901,1.093,3.74,1.64,5.611c1.834,6.272,7.338,8.169,12.448,4.283
		c0.835-0.635,1.798-1.166,2.467-1.947c3.039-3.552,5.703-2.524,9.114-0.142c3.806,2.658,5.064,5.185,2.817,9.508
		c-1.765,3.396-2.897,6.611,0.378,10.545c3.006,3.612,6.287,2.393,9.335,2.128c4.455-0.388,6.256,1.265,7.565,5.347
		c1.4,4.367,1.081,7.156-3.322,9.467c-2.751,1.444-5.766,2.717-5.896,7.421c-0.138,5.027,3.098,6.214,5.907,8.439
		c1.573,1.246,4.435,1.69,4.347,4.078c-0.126,3.442-1.06,7.13-3.217,9.679c-1.72,2.033-5.085,0.54-7.708,0.598
		c-2.821,0.063-5.065-0.004-7.339,2.781c-2.991,3.663-1.393,6.459-0.322,9.814c0.654,2.047,2.836,4.32,1.375,6.238
		c-2.065,2.71-5.197,4.482-8.216,6.173c-1.024,0.573-1.66-0.324-2.339-0.833c-1.799-1.35-3.559-2.753-5.341-4.126
		c-4.303-3.315-10.319-1.434-11.836,3.698c-0.34,1.151-0.857,2.285-0.98,3.459c-0.467,4.462-2.942,5.49-7.21,5.666
		c-5.03,0.207-7.2-1.616-8.104-6.36c-0.572-3.002-0.845-6.098-5.001-7.574c-4.337-1.541-6.651,0.488-9.533,2.605
		c-1.749,1.285-3.432,4.154-5.439,3.335c-3.096-1.264-5.716-3.762-8.427-5.88c-1.03-0.805-0.236-1.937,0.105-2.903
		c0.698-1.981,1.399-3.96,2.093-5.942c1.829-5.219-1.658-10.193-7.108-10.14c-1.199,0.012-2.434-0.141-3.591,0.092
		c-4.351,0.873-6.325-1.008-7.591-5.168c-1.279-4.205-1.64-7.269,3.118-9.375c2.258-1,4.085-2.981,6.106-4.517
		C22.253,136.218,22.873,133.554,21.148,131.01z"/>
	<path fill="#FCFCFC" d="M95.558,135.646c-0.075,17.149-13.871,30.846-31.015,30.792c-17.045-0.054-30.936-13.959-30.956-30.987
		c-0.02-17.169,14.215-31.253,31.368-31.035C82.127,104.635,95.633,118.418,95.558,135.646z"/>
	<path fill="#EE3438" d="M39.458,134.878c0.263-13.94,11.679-24.95,25.632-24.721c13.844,0.227,25.016,11.759,24.819,25.618
		c-0.2,14.065-11.82,25.241-25.937,24.949C50.134,160.438,39.193,148.902,39.458,134.878z"/>
	<path fill="#FEFEFE" d="M80.217,135.656c-0.097,8.716-7.149,15.523-15.909,15.355c-8.509-0.162-15.278-7.036-15.324-15.562
		c-0.047-8.602,7.04-15.612,15.756-15.584C73.467,119.893,80.314,126.879,80.217,135.656z"/>
</g>
<g>
	<path fill="#EE3438" d="M68.159,48.24c-1.495-0.799-2.919-1.799-4.499-2.356c-3.589-1.266-3.754-3.513-2.95-6.867
		c0.77-3.209,2.101-4.466,5.421-4.45c2.353,0.011,4.86,0.624,6.917-2.215c2.33-3.216,0.665-5.446-0.329-8.122
		c-0.528-1.422-2.26-2.862-1.214-4.326c1.507-2.11,3.528-4.186,5.942-4.954c1.906-0.607,3.564,1.601,5.168,2.74
		c2.127,1.511,3.9,1.855,6.503,0.789c2.419-0.991,2.783-2.616,3.201-4.623c1.425-6.832,1.437-6.792,8.308-6.669
		c1.314,0.024,2.128,0.291,2.53,1.654c0.417,1.413,1.049,2.761,1.574,4.142c1.759,4.631,6.033,5.737,9.663,2.495
		c0.593-0.53,1.29-0.988,1.748-1.619c2.085-2.866,4.16-2.247,6.879-0.65c3.035,1.782,4.136,3.617,2.696,7.017
		c-1.131,2.671-1.795,5.168,0.914,7.947c2.487,2.55,4.894,1.434,7.182,1.052c3.343-0.558,4.803,0.583,6.035,3.59
		c1.318,3.217,1.243,5.344-1.947,7.353c-1.993,1.255-4.196,2.397-4.014,5.96c0.195,3.807,2.711,4.511,4.967,6.025
		c1.263,0.848,3.452,1.013,3.528,2.823c0.11,2.609-0.376,5.452-1.854,7.506c-1.179,1.639-3.811,0.711-5.79,0.911
		c-2.128,0.216-3.828,0.299-5.381,2.539c-2.042,2.946-0.668,4.964,0.341,7.436c0.616,1.508,2.401,3.096,1.411,4.633
		c-1.399,2.171-3.66,3.697-5.842,5.155c-0.739,0.494-1.274-0.146-1.817-0.49c-1.44-0.913-2.854-1.868-4.282-2.8
		c-3.45-2.249-7.884-0.469-8.725,3.5c-0.189,0.89-0.511,1.778-0.534,2.673c-0.087,3.4-1.896,4.325-5.111,4.711
		c-3.789,0.456-5.538-0.792-6.503-4.324c-0.611-2.235-1.002-4.558-4.231-5.426c-3.369-0.906-4.998,0.765-7.049,2.537
		c-1.246,1.075-2.346,3.344-3.912,2.845c-2.415-0.771-4.544-2.503-6.719-3.941c-0.827-0.547-0.293-1.45-0.094-2.2
		c0.409-1.538,0.821-3.076,1.228-4.615c1.071-4.053-1.86-7.605-5.976-7.239c-0.906,0.08-1.848,0.039-2.708,0.283
		c-3.237,0.919-4.84-0.385-6.045-3.453c-1.217-3.101-1.672-5.396,1.798-7.271c1.647-0.89,2.909-2.496,4.346-3.778
		C69.304,52.11,69.614,50.06,68.159,48.24z"/>
	<path fill="#FCFCFC" d="M124.67,47.311c0.965,12.965-8.645,24.139-21.605,25.119c-12.885,0.975-24.211-8.707-25.241-21.574
		c-1.038-12.974,8.881-24.466,21.857-25.323C112.672,24.674,123.7,34.286,124.67,47.311z"/>
	<path fill="#EE3438" d="M82.227,50.072c-0.631-10.551,7.34-19.551,17.899-20.21c10.476-0.653,19.606,7.397,20.283,17.882
		c0.687,10.641-7.429,19.78-18.116,20.4C91.818,68.753,82.862,60.687,82.227,50.072z"/>
	<path fill="#FEFEFE" d="M113.077,48.232c0.446,6.593-4.478,12.157-11.108,12.553c-6.44,0.384-11.965-4.407-12.509-10.848
		c-0.548-6.498,4.39-12.218,10.979-12.716C107.036,36.721,112.627,41.593,113.077,48.232z"/>
</g>
<g>
	<path fill="#EE3438" d="M125.726,114.438c-1.264-0.52-2.487-1.206-3.8-1.525c-2.981-0.724-3.297-2.513-2.924-5.268
		c0.357-2.637,1.323-3.753,3.987-4.01c1.888-0.182,3.949,0.106,5.368-2.338c1.608-2.769,0.091-4.422-0.924-6.488
		c-0.539-1.098-2.045-2.112-1.325-3.371c1.038-1.815,2.49-3.644,4.364-4.456c1.48-0.642,2.988,0.995,4.368,1.779
		c1.829,1.039,3.279,1.171,5.28,0.105c1.86-0.991,2.02-2.324,2.192-3.968c0.588-5.595,0.602-5.565,6.123-6.024
		c1.056-0.088,1.731,0.061,2.164,1.121c0.449,1.099,1.065,2.129,1.599,3.195c1.787,3.571,5.305,4.112,7.953,1.217
		c0.433-0.473,0.954-0.897,1.271-1.44c1.44-2.468,3.154-2.14,5.465-1.08c2.579,1.183,3.611,2.565,2.732,5.41
		c-0.691,2.235-1.02,4.291,1.378,6.3c2.202,1.844,4.042,0.753,5.846,0.261c2.637-0.719,3.9,0.078,5.133,2.39
		c1.319,2.474,1.431,4.185-0.965,6.056c-1.497,1.169-3.171,2.263-2.736,5.106c0.465,3.038,2.541,3.398,4.473,4.43
		c1.082,0.578,2.851,0.532,3.059,1.978c0.3,2.083,0.141,4.403-0.878,6.171c-0.813,1.41-2.999,0.879-4.57,1.201
		c-1.69,0.346-3.046,0.55-4.11,2.473c-1.399,2.529-0.133,4.036,0.877,5.937c0.617,1.16,2.177,2.288,1.508,3.601
		c-0.946,1.855-2.636,3.263-4.267,4.609c-0.553,0.456-1.034-0.014-1.498-0.246c-1.229-0.616-2.441-1.267-3.662-1.898
		c-2.95-1.524-6.362,0.264-6.714,3.516c-0.079,0.729-0.266,1.467-0.212,2.187c0.206,2.734-1.17,3.623-3.717,4.194
		c-3.002,0.673-4.506-0.186-5.567-2.94c-0.671-1.743-1.174-3.575-3.834-4.009c-2.776-0.453-3.946,1.019-5.448,2.607
		c-0.912,0.964-1.611,2.873-2.907,2.599c-2-0.422-3.848-1.638-5.709-2.616c-0.707-0.371-0.353-1.139-0.254-1.757
		c0.203-1.267,0.409-2.534,0.61-3.802c0.53-3.338-2.109-5.949-5.381-5.322c-0.72,0.138-1.479,0.181-2.149,0.447
		c-2.521,1-3.914,0.084-5.129-2.279c-1.228-2.389-1.78-4.192,0.852-5.978c1.249-0.848,2.131-2.238,3.179-3.383
		C126.959,117.449,127.041,115.779,125.726,114.438z"/>
	<path fill="#FCFCFC" d="M170.979,109.105c1.827,10.321-4.975,20.063-15.29,21.902c-10.256,1.828-20.127-5.018-21.997-15.256
		c-1.886-10.322,5.137-20.345,15.476-22.086C159.517,91.922,169.144,98.736,170.979,109.105z"/>
	<path fill="#EE3438" d="M137.159,114.765c-1.363-8.412,4.3-16.278,12.716-17.663c8.35-1.374,16.327,4.341,17.721,12.697
		c1.414,8.48-4.353,16.469-12.875,17.834C146.369,128.971,138.53,123.228,137.159,114.765z"/>
	<path fill="#FEFEFE" d="M161.754,110.785c0.893,5.252-2.605,10.115-7.891,10.97c-5.135,0.831-9.955-2.564-10.914-7.686
		c-0.967-5.168,2.53-10.157,7.774-11.091C155.975,102.042,160.855,105.496,161.754,110.785z"/>
</g>
</svg>
